HIERARCHY
ROOT Hips
{
  OFFSET 55.281 93.9525 -3.15217
  CHANNELS 6 Xposition Yposition Zposition Zrotation Xrotation Yrotation
  JOINT spine
  {
    OFFSET 0 7.80059 0.448573
    CHANNELS 3 Zrotation Xrotation Yrotation
    JOINT spine1
    {
      OFFSET 0 10.1364 0
      CHANNELS 3 Zrotation Xrotation Yrotation
      JOINT spine2
      {
        OFFSET 0 9.71251 0
        CHANNELS 3 Zrotation Xrotation Yrotation
        JOINT Neck
        {
          OFFSET 0 24.9361 1.18887
          CHANNELS 3 Zrotation Xrotation Yrotation
          JOINT Head
          {
            OFFSET 0 7.53384 0
            CHANNELS 3 Zrotation Xrotation Yrotation
            End Site
            {
              OFFSET 0 18.2361 -6.01402
            }
          }
        }
        JOINT RightShoulder
        {
          OFFSET -4.08965 10.4888 -0.569457
          CHANNELS 3 Zrotation Xrotation Yrotation
          JOINT RightArm
          {
            OFFSET 0 13.757 0
            CHANNELS 3 Zrotation Xrotation Yrotation
            JOINT RightArmRoll
            {
              OFFSET 0 6.94478 0
              CHANNELS 3 Zrotation Xrotation Yrotation
              JOINT RightForeArm
              {
                OFFSET 0 20.2277 0
                CHANNELS 3 Zrotation Xrotation Yrotation
                JOINT RightForeArmRoll
                {
                  OFFSET 0 7.79312 0
                  CHANNELS 3 Zrotation Xrotation Yrotation
                  JOINT RightHand
                  {
                    OFFSET 0 15.6391 0
                    CHANNELS 3 Zrotation Xrotation Yrotation
                    End Site
                    {
                      OFFSET 0 0 0
                    }
                  }
                }
              }
            }
          }
        }
        JOINT LeftShoulder
        {
          OFFSET 4.08965 10.4888 -0.569457
          CHANNELS 3 Zrotation Xrotation Yrotation
          JOINT LeftArm
          {
            OFFSET 0 13.757 0
            CHANNELS 3 Zrotation Xrotation Yrotation
            JOINT LeftArmRoll
            {
              OFFSET 0 6.94478 0
              CHANNELS 3 Zrotation Xrotation Yrotation
              JOINT LeftForeArm
              {
                OFFSET 0 20.2277 0
                CHANNELS 3 Zrotation Xrotation Yrotation
                JOINT LeftForeArmRoll
                {
                  OFFSET 0 7.79312 0
                  CHANNELS 3 Zrotation Xrotation Yrotation
                  JOINT LeftHand
                  {
                    OFFSET 0 15.6391 0
                    CHANNELS 3 Zrotation Xrotation Yrotation
                    End Site
                    {
                      OFFSET 0 0 0
                    }
                  }
                }
              }
            }
          }
        }
      }
    }
  }
  JOINT RightUpLeg
  {
    OFFSET -6.91415 -1.26788 -1.06358
    CHANNELS 3 Zrotation Xrotation Yrotation
    JOINT RightUpLegRoll
    {
      OFFSET 0 18.3378 0
      CHANNELS 3 Zrotation Xrotation Yrotation
      JOINT RightLeg
      {
        OFFSET 0 -22.7085 0
        CHANNELS 3 Zrotation Xrotation Yrotation
        JOINT RightLegRoll
        {
          OFFSET 0 22.7828 0
          CHANNELS 3 Zrotation Xrotation Yrotation
          JOINT RightFoot
          {
            OFFSET 0 18.9629 0
            CHANNELS 3 Zrotation Xrotation Yrotation
            JOINT RightToeBase
            {
              OFFSET 0 15.852 0
              CHANNELS 3 Zrotation Xrotation Yrotation
              End Site
              {
                OFFSET 0.00671906 7.67701 -0.884893
              }
            }
          }
        }
      }
    }
  }
  JOINT LeftUpLeg
  {
    OFFSET 6.91415 -1.26788 -1.06358
    CHANNELS 3 Zrotation Xrotation Yrotation
    JOINT LeftUpLegRoll
    {
      OFFSET 0 18.3379 0
      CHANNELS 3 Zrotation Xrotation Yrotation
      JOINT LeftLeg
      {
        OFFSET 0 22.7084 0
        CHANNELS 3 Zrotation Xrotation Yrotation
        JOINT LeftLegRoll
        {
          OFFSET 0 22.9934 0
          CHANNELS 3 Zrotation Xrotation Yrotation
          JOINT LeftFoot
          {
            OFFSET 0 18.7522 0
            CHANNELS 3 Zrotation Xrotation Yrotation
            JOINT LeftToeBase
            {
              OFFSET 0 15.852 0
              CHANNELS 3 Zrotation Xrotation Yrotation
              End Site
              {
                OFFSET -0.030112 7.677 -0.884893
              }
            }
          }
        }
      }
    }
  }
}
MOTION
Frames: 11
Frame Time: 0.00208333
51.2684 99.6391 -0.166841 0.797993 -2.8595 7.15685 -0.580028 -1.60146 0.211864 -1.15546 0.797206 0.481059 -1.16189 2.44206 0.500614 -10.8477 -3.02595 -5.36732 12.7573 0.930253 -5.65475 40.638 -13.9553 -9.63385 29.5618 25.0025 65.2844 1.59028e-015 -6.36111e-015 -0 -2.58697 43.8084 1.20948 -9.07639e-006 -3.43828e-006 -2.99999 8.02904 -4.95144 0.697712 -34.538 -14.6485 10.6967 -48.7683 25.1024 -44.674 -2.98177e-016 1.59028e-015 -1.90833e-014 4.93995 41.4912 -2.58672 7.26614e-006 6.84411e-006 3 -8.02896 -4.95163 -0.697741 166.32 5.26682 0.365149 180 7.01447e-015 178.553 -169.167 23.3176 176.234 1.36568e-006 -1.61705e-006 0.334627 -18.9417 67.657 19.2516 8.12895 25.1227 -3.59865 -162.516 7.57474 -3.55665 4.54188e-006 -4.6773e-006 -1.2443 -1.06723 -19.1441 0.239468 2.20793e-006 -2.58006e-006 -0.290735 18.7073 67.7908 -19.3635 -8.13649 25.2327 3.48773 
51.2644 99.8839 -0.109532 0.82066 -2.90491 7.07048 -0.581809 -1.57957 0.215095 -1.15909 0.840933 0.487715 -1.16562 2.48578 0.50734 -10.9494 -3.28592 -5.36828 12.8526 1.07941 -5.65259 41.0933 -13.8919 -9.55349 29.9799 24.8325 64.845 -7.95139e-015 -1.27222e-014 6.36111e-015 -2.52732 43.7609 1.1474 -9.07639e-006 -3.43828e-006 -2.99999 8.02904 -4.95144 0.697712 -34.8711 -14.6391 10.6623 -49.0996 24.6537 -44.2365 -3.18055e-015 8.94531e-016 -1.59028e-014 4.75611 41.4006 -2.44517 7.26614e-006 6.84411e-006 3 -8.02896 -4.95163 -0.697741 166.44 5.24822 0.299364 180 7.01449e-015 178.559 -169.174 23.234 176.249 1.36568e-006 -1.61705e-006 0.332151 -18.9319 67.664 19.2576 8.13037 25.1429 -3.57829 -162.731 7.42717 -3.42722 4.54188e-006 -4.6773e-006 -1.24443 -1.0882 -19.0577 0.231508 2.20793e-006 -2.58006e-006 -0.286167 18.6619 67.7473 -19.3281 -8.13649 25.2327 3.48773 
51.3054 100.05 -0.0485081 0.840083 -2.94559 6.98238 -0.583033 -1.55818 0.218521 -1.1616 0.883689 0.494714 -1.16823 2.52854 0.51439 -11.0446 -3.54787 -5.36902 12.941 1.22686 -5.6496 41.5465 -13.8289 -9.47474 30.4017 24.6626 64.4009 -7.95139e-015 -6.36111e-015 1.59028e-014 -2.46419 43.7218 1.08433 -9.07639e-006 -3.43828e-006 -2.99999 8.02904 -4.95144 0.697712 -35.2023 -14.6309 10.6293 -49.4266 24.2085 -43.8108 1.39149e-015 7.35503e-015 -2.22639e-014 4.57611 41.3121 -2.30722 7.26614e-006 6.84411e-006 3 -8.02896 -4.95163 -0.697741 166.564 5.24582 0.233713 180 7.01451e-015 178.566 -169.182 23.168 176.261 1.36568e-006 -1.61705e-006 0.330759 -18.9238 67.6734 19.2655 8.13184 25.1641 -3.55692 -162.944 7.29462 -3.30279 4.54188e-006 -4.6773e-006 -1.24454 -1.10984 -18.9925 0.223896 2.20793e-006 -2.58006e-006 -0.282139 18.6189 67.706 -19.2947 -8.13649 25.2327 3.48773 
51.3099 100.299 -0.0114393 0.855678 -2.98111 6.89269 -0.583693 -1.53749 0.222059 -1.16298 0.925037 0.501893 -1.16971 2.56989 0.521601 -11.1299 -3.80963 -5.36906 13.0193 1.37141 -5.64525 41.9979 -13.7658 -9.39703 30.8277 24.4911 63.95 -6.36111e-015 2.3059e-014 -0 -2.39676 43.6928 1.01974 -9.07639e-006 -3.43828e-006 -2.99999 8.02904 -4.95144 0.697712 -35.5277 -14.6246 10.5984 -49.7541 23.769 -43.3967 3.97569e-016 1.59028e-015 -0 4.40152 41.2259 -2.17398 7.26614e-006 6.84411e-006 3 -8.02896 -4.95163 -0.697741 166.693 5.25994 0.168623 180 7.01453e-015 178.572 -169.194 23.118 176.272 1.36568e-006 -1.61705e-006 0.330474 -18.9176 67.6853 19.2754 8.13327 25.1848 -3.53605 -163.152 7.17795 -3.18437 4.54188e-006 -4.6773e-006 -1.24454 -1.13307 -18.9476 0.216401 2.20793e-006 -2.58006e-006 -0.27868 18.5791 67.668 -19.2641 -8.13649 25.2327 3.48773 
51.2873 100.446 -0.0662735 0.866865 -3.01106 6.80154 -0.583783 -1.51772 0.225625 -1.16322 0.964543 0.509087 -1.17005 2.60939 0.528807 -11.2022 -4.06902 -5.3679 13.0844 1.51188 -5.63901 42.4475 -13.7023 -9.31982 31.2584 24.3164 63.4901 -0 0 3.18055e-015 -2.32418 43.6755 0.953127 -9.07639e-006 -3.43828e-006 -2.99999 8.02904 -4.95144 0.697712 -35.8431 -14.6206 10.5706 -50.0867 23.3376 -42.9936 2.18663e-015 1.59028e-015 -3.18055e-015 4.23394 41.142 -2.04653 7.26614e-006 6.84411e-006 3 -8.02896 -4.95163 -0.697741 166.828 5.29086 0.104519 180 7.01455e-015 178.577 -169.212 23.0822 176.282 1.36568e-006 -1.61705e-006 0.331314 -18.9136 67.7001 19.2876 8.13454 25.2035 -3.51718 -163.354 7.07802 -3.07295 4.54188e-006 -4.6773e-006 -1.24438 -1.15885 -18.922 0.208794 2.20793e-006 -2.58006e-006 -0.275821 18.5434 67.6344 -19.237 -8.13649 25.2327 3.48773 
51.3036 100.682 -0.0100849 0.873066 -3.03499 6.70907 -0.583295 -1.49909 0.229136 -1.1623 1.00177 0.516132 -1.16923 2.64662 0.535845 -11.2583 -4.32387 -5.36505 13.1332 1.64711 -5.63032 42.8957 -13.6377 -9.24257 31.6939 24.1365 63.0193 -6.36111e-015 -1.51076e-014 1.90833e-014 -2.24561 43.6715 0.88394 -9.07639e-006 -3.43828e-006 -2.99999 8.02904 -4.95144 0.697712 -36.1444 -14.6194 10.5466 -50.4293 22.9165 -42.6013 -1.19271e-015 -2.18663e-015 -0 4.07493 41.0605 -1.92596 7.26614e-006 6.84411e-006 3 -8.02896 -4.95163 -0.697741 166.968 5.33887 0.0418273 180 7.01456e-015 178.583 -169.237 23.0589 176.292 1.36568e-006 -1.61705e-006 0.3333 -18.9122 67.718 19.3024 8.13556 25.2187 -3.50183 -163.55 6.99568 -2.96952 4.54188e-006 -4.6773e-006 -1.24398 -1.18809 -18.9149 0.200845 2.20793e-006 -2.58006e-006 -0.273591 18.5128 67.6063 -19.2143 -8.13649 25.2327 3.48773 
51.3565 100.854 0.0194763 0.873711 -3.0525 6.61542 -0.582224 -1.48182 0.232511 -1.16021 1.03628 0.522863 -1.16723 2.68113 0.54255 -11.2948 -4.572 -5.36003 13.1626 1.7759 -5.61867 43.3427 -13.5718 -9.16473 32.1346 23.9493 62.5356 -1.59028e-015 7.95139e-015 6.36111e-015 -2.16018 43.6824 0.811642 -9.07639e-006 -3.43828e-006 -2.99999 8.02904 -4.95144 0.697712 -36.4275 -14.6217 10.5273 -50.7865 22.5079 -42.2191 -5.1684e-015 -7.55382e-015 -3.18055e-015 3.92606 40.9813 -1.81335 7.26614e-006 6.84411e-006 3 -8.02896 -4.95163 -0.697741 167.115 5.40428 -0.0190252 180 7.01458e-015 178.588 -169.27 23.0464 176.303 1.36568e-006 -1.61706e-006 0.336452 -18.9136 67.7393 19.3198 8.13624 25.2289 -3.49151 -163.737 6.93179 -2.87509 4.54188e-006 -4.6773e-006 -1.24327 -1.22172 -18.9254 0.192325 2.20793e-006 -2.58006e-006 -0.27202 18.488 67.5846 -19.1968 -8.13649 25.2327 3.48773 
51.3261 101.066 0.0464507 0.86823 -3.06315 6.52072 -0.580563 -1.46613 0.235665 -1.15693 1.06765 0.529117 -1.16403 2.7125 0.548756 -11.3085 -4.81124 -5.35232 13.1693 1.89709 -5.60352 43.7887 -13.5041 -9.08575 32.5806 23.7527 62.0371 -1.59028e-014 0 1.90833e-014 -2.06702 43.7098 0.735676 -9.07639e-006 -3.43828e-006 -2.99999 8.02904 -4.95144 0.697712 -36.6883 -14.6279 10.5135 -51.1634 22.1143 -41.8466 -2.38542e-015 3.97569e-016 -3.18055e-015 3.78888 40.9046 -1.70979 7.26614e-006 6.84411e-006 3 -8.02896 -4.95163 -0.697741 167.267 5.48737 -0.0776124 180 7.01459e-015 178.592 -169.313 23.043 176.315 1.36568e-006 -1.61706e-006 0.340791 -18.9182 67.7643 19.3403 8.13649 25.2327 -3.48774 -163.914 6.88721 -2.79064 4.54188e-006 -4.6773e-006 -1.24218 -1.2607 -18.9527 0.183005 2.20793e-006 -2.58006e-006 -0.271136 18.47 67.5705 -19.1852 -8.13649 25.2327 3.48773 
51.401 101.209 0.0247331 0.856003 -3.06422 6.42421 -0.578217 -1.4519 0.238715 -1.15228 1.09608 0.535125 -1.15946 2.74093 0.554693 -11.3012 -5.05512 -5.34324 13.1562 2.01839 -5.58573 44.2365 -13.4363 -9.00738 33.0293 23.5468 61.5194 -3.18055e-015 -8.74653e-015 1.90833e-014 -1.9638 43.7568 0.655147 -9.07639e-006 -3.43828e-006 -2.99999 8.02904 -4.95144 0.697712 -36.9302 -14.6412 10.5077 -51.5558 21.7387 -41.4841 1.19271e-015 7.55382e-015 3.18055e-015 3.6621 40.8331 -1.61473 7.26614e-006 6.84411e-006 3 -8.02896 -4.95163 -0.697741 167.43 5.59722 -0.136115 180 7.0146e-015 178.596 -169.362 23.0607 176.326 1.36568e-006 -1.61706e-006 0.347138 -18.9266 67.7947 19.3651 8.13649 25.2327 -3.48774 -164.083 6.86942 -2.7166 4.54188e-006 -4.6773e-006 -1.24076 -1.30333 -19.0083 0.173525 2.20793e-006 -2.58006e-006 -0.271175 18.4582 67.5632 -19.179 -8.13649 25.2327 3.48773 
51.3711 101.416 0.0598828 0.837295 -3.0542 6.32517 -0.575126 -1.43881 0.241842 -1.14613 1.12226 0.541247 -1.15338 2.76711 0.560719 -11.2779 -5.31607 -5.33435 13.129 2.14682 -5.56659 44.6881 -13.3701 -8.93149 33.4783 23.3331 60.9814 -4.77083e-015 -2.38542e-015 6.36111e-015 -1.84965 43.8238 0.569939 -9.07639e-006 -3.43828e-006 -2.99999 8.02904 -4.95144 0.697712 -37.1605 -14.6635 10.5106 -51.956 21.3816 -41.1318 -1.43125e-014 -6.36111e-015 -0 3.54286 40.769 -1.52649 7.26614e-006 6.84411e-006 3 -8.02896 -4.95163 -0.697741 167.603 5.74015 -0.196636 180 7.01461e-015 178.6 -169.412 23.11 176.331 1.36568e-006 -1.61706e-006 0.356074 -18.9391 67.8313 19.3951 8.13649 25.2327 -3.48774 -164.247 6.88297 -2.65209 4.54188e-006 -4.6773e-006 -1.23909 -1.34735 -19.1021 0.164617 2.20793e-006 -2.58006e-006 -0.272275 18.4511 67.561 -19.1766 -8.13649 25.2327 3.48773 
51.3918 101.551 0.0203675 0.812859 -3.03447 6.22383 -0.571331 -1.42674 0.245061 -1.13856 1.1464 0.547511 -1.1459 2.79125 0.566862 -11.2402 -5.59027 -5.3255 13.0887 2.28017 -5.54613 45.1421 -13.3053 -8.85778 33.9276 23.1114 60.4267 -9.54166e-015 3.97569e-015 1.59028e-014 -1.72594 43.9084 0.480661 -9.07639e-006 -3.43828e-006 -2.99999 8.02904 -4.95144 0.697712 -37.3807 -14.6929 10.5207 -52.3632 21.0407 -40.7888 1.19271e-015 -2.38542e-015 3.18055e-015 3.43039 40.7112 -1.44437 7.26614e-006 6.84411e-006 3 -8.02896 -4.95163 -0.697741 167.785 5.91231 -0.258635 180 7.01462e-015 178.603 -169.463 23.1877 176.332 1.36568e-006 -1.61706e-006 0.367254 -18.9552 67.8733 19.4296 8.13649 25.2327 -3.48774 -164.405 6.92425 -2.59618 4.54188e-006 -4.6773e-006 -1.23722 -1.39276 -19.2299 0.156183 2.20793e-006 -2.58006e-006 -0.27432 18.4482 67.5633 -19.1778 -8.13649 25.2327 3.48773 
